<?xml version="1.0" encoding="utf-8"?><!-- Uploaded to: SVG Repo, www.svgrepo.com, Generator: SVG Repo Mixer Tools -->
<svg width="800px" height="800px" viewBox="0 0 24 24" fill="none" xmlns="http://www.w3.org/2000/svg">

<path d="M21 12C21 16.9706 16.9706 21 12 21C7.02944 21 3 16.9706 3 12C3 7.02944 7.02944 3 12 3C16.9706 3 21 7.02944 21 12Z" stroke="#000000" stroke-width="2" stroke-linecap="round" stroke-linejoin="round"/>
<path id="Left_Arrow_4_" d="m84 108c-1.023 0-2.047-.391-2.828-1.172l-40-40c-1.563-1.563-1.563-4.094 0-5.656l40-40c1.563-1.563 4.094-1.563 5.656 0s1.563 4.094 0 5.656l-37.172 37.172 37.172 37.172c1.563 1.563 1.563 4.094 0 5.656-.781.781-1.805 1.172-2.828 1.172z"/>

</svg>